<svg width="18" height="16" viewBox="0 0 18 16" fill="none" xmlns="http://www.w3.org/2000/svg">
<path d="M9.52019 0.27006C9.71722 0.269674 9.9069 0.34483 10.0502 0.48006L17.0502 7.48006C17.3426 7.77288 17.3426 8.24724 17.0502 8.54006L10.0502 15.5401C9.75737 15.8325 9.28301 15.8325 8.99019 15.5401C8.84724 15.4008 8.76662 15.2096 8.76662 15.0101C8.76662 14.8105 8.84724 14.6193 8.99019 14.4801L15.4502 8.00006L9.00019 1.55006C8.85724 1.41077 8.77662 1.21965 8.77662 1.02006C8.77662 0.820473 8.85724 0.629349 9.00019 0.490061C9.13566 0.347996 9.3239 0.268356 9.52019 0.27006Z" fill="#ABABAB"/>
<path d="M1.47998 7.25012L16.48 7.25012C16.8942 7.25012 17.23 7.58591 17.23 8.00012C17.23 8.41434 16.8942 8.75012 16.48 8.75012L1.47998 8.75012C1.06577 8.75012 0.72998 8.41434 0.72998 8.00012C0.72998 7.58591 1.06577 7.25012 1.47998 7.25012Z" fill="#ABABAB"/>
<path d="M9.52019 0.27006C9.71722 0.269674 9.9069 0.34483 10.0502 0.48006L17.0502 7.48006C17.3426 7.77288 17.3426 8.24724 17.0502 8.54006L10.0502 15.5401C9.75737 15.8325 9.28301 15.8325 8.99019 15.5401C8.84724 15.4008 8.76662 15.2096 8.76662 15.0101C8.76662 14.8105 8.84724 14.6193 8.99019 14.4801L15.4502 8.00006L9.00019 1.55006C8.85724 1.41077 8.77662 1.21965 8.77662 1.02006C8.77662 0.820473 8.85724 0.629349 9.00019 0.490061C9.13566 0.347996 9.3239 0.268356 9.52019 0.27006Z" fill="#ABABAB"/>
<path d="M1.47998 7.25012L16.48 7.25012C16.8942 7.25012 17.23 7.58591 17.23 8.00012C17.23 8.41434 16.8942 8.75012 16.48 8.75012L1.47998 8.75012C1.06577 8.75012 0.72998 8.41434 0.72998 8.00012C0.72998 7.58591 1.06577 7.25012 1.47998 7.25012Z" fill="#ABABAB"/>
</svg>
