<svg width="153" height="35" viewBox="0 0 153 35" fill="none" xmlns="http://www.w3.org/2000/svg">
<path d="M13.0319 21.9681C12.5404 21.6404 12.1931 18.646 12.4022 14.6973C17.7421 14.2537 25.3871 14.4453 34.9974 17.1953C34.9991 17.2967 35 17.3982 35 17.5C35 20.2093 34.3843 22.7749 33.2852 25.0643C26.9436 22.4462 20.1908 22.3197 16.2779 22.2464C14.5439 22.2139 13.3676 22.1919 13.0319 21.9681Z" fill="#CD0000"/>
<path d="M30.8706 28.7912C27.6605 32.5886 22.8618 35 17.5 35C7.83502 35 0 27.165 0 17.5C0 10.4908 4.12071 4.44409 10.0717 1.65021C8.99575 5.42766 8.36299 8.86049 8.04639 11.8917C5.57361 12.4399 3.89153 13.0619 2.97871 13.4043C1.48935 13.9628 2.05882 16.4706 4.09573 16.0106C4.38391 15.9695 4.79499 15.8833 5.32545 15.7722C5.97646 15.6358 6.80746 15.4617 7.81153 15.2869C7.57651 22.594 9.28198 26.8085 10.4255 26.8085C10.6289 26.8085 10.9746 26.7952 11.4393 26.7772C14.7216 26.6506 23.9376 26.2949 30.8706 28.7912Z" fill="#CD0000"/>
<path d="M15.8627 0.0755819C14.1631 3.39634 13.2018 7.42938 12.7263 11.1263C17.9369 10.553 25.1121 10.6263 34.334 12.7016C32.248 5.36951 25.5011 0 17.5 0C16.9479 0 16.4018 0.0255671 15.8627 0.0755819Z" fill="#CD0000"/>
<path d="M43.534 27V8.28H57.886C58.5447 8.28 59.1427 8.44467 59.68 8.774C60.2347 9.10333 60.6767 9.54533 61.006 10.1C61.3353 10.6373 61.5 11.2353 61.5 11.894V15.56C61.5 15.7853 61.4827 16.002 61.448 16.21C61.4133 16.418 61.3527 16.6173 61.266 16.808C61.5607 17.2067 61.7947 17.6227 61.968 18.056C62.1587 18.4893 62.254 18.9227 62.254 19.356V23.386C62.254 24.0447 62.0893 24.6513 61.76 25.206C61.4307 25.7433 60.9887 26.1767 60.434 26.506C59.8793 26.8353 59.2727 27 58.614 27H43.534ZM47.278 23.542H58.458C58.5447 23.542 58.6227 23.516 58.692 23.464C58.7613 23.3947 58.796 23.3167 58.796 23.23V19.512C58.796 19.4253 58.7613 19.356 58.692 19.304C58.6227 19.2347 58.5447 19.2 58.458 19.2H47.278C47.1913 19.2 47.1133 19.2347 47.044 19.304C46.992 19.356 46.966 19.4253 46.966 19.512V23.23C46.966 23.3167 46.992 23.3947 47.044 23.464C47.1133 23.516 47.1913 23.542 47.278 23.542ZM47.278 15.742H57.73C57.8167 15.742 57.886 15.716 57.938 15.664C57.99 15.5947 58.016 15.5167 58.016 15.43V12.05C58.016 11.9633 57.99 11.894 57.938 11.842C57.886 11.7727 57.8167 11.738 57.73 11.738H47.278C47.1913 11.738 47.1133 11.7727 47.044 11.842C46.992 11.894 46.966 11.9633 46.966 12.05V15.43C46.966 15.5167 46.992 15.5947 47.044 15.664C47.1133 15.716 47.1913 15.742 47.278 15.742ZM68.5468 27C67.8881 27 67.2901 26.8353 66.7528 26.506C66.2155 26.1767 65.7821 25.7433 65.4528 25.206C65.1235 24.6687 64.9588 24.0707 64.9588 23.412V15.508C64.9588 14.8493 65.1235 14.2513 65.4528 13.714C65.7821 13.1767 66.2155 12.7433 66.7528 12.414C67.2901 12.0847 67.8881 11.92 68.5468 11.92H76.6848C77.3435 11.92 77.9415 12.0847 78.4788 12.414C79.0335 12.7433 79.4668 13.1767 79.7788 13.714C80.1081 14.2513 80.2728 14.8493 80.2728 15.508V23.412C80.2728 24.0707 80.1081 24.6687 79.7788 25.206C79.4668 25.7433 79.0421 26.1767 78.5048 26.506C77.9675 26.8353 77.3608 27 76.6848 27H68.5468ZM68.6768 23.594H76.5548C76.6415 23.594 76.7108 23.568 76.7628 23.516C76.8321 23.4467 76.8668 23.3687 76.8668 23.282V15.638C76.8668 15.5513 76.8321 15.482 76.7628 15.43C76.7108 15.3607 76.6415 15.326 76.5548 15.326H68.6768C68.5901 15.326 68.5121 15.3607 68.4428 15.43C68.3908 15.482 68.3648 15.5513 68.3648 15.638V23.282C68.3648 23.3687 68.3908 23.4467 68.4428 23.516C68.5121 23.568 68.5901 23.594 68.6768 23.594ZM85.9394 27C85.2807 27 84.6827 26.8353 84.1454 26.506C83.6081 26.1767 83.1747 25.7433 82.8454 25.206C82.5161 24.6687 82.3514 24.0707 82.3514 23.412V15.508C82.3514 14.8493 82.5161 14.2513 82.8454 13.714C83.1747 13.1767 83.6081 12.7433 84.1454 12.414C84.6827 12.0847 85.2807 11.92 85.9394 11.92H94.0774C94.7361 11.92 95.3341 12.0847 95.8714 12.414C96.4261 12.7433 96.8594 13.1767 97.1714 13.714C97.5007 14.2513 97.6654 14.8493 97.6654 15.508V23.412C97.6654 24.0707 97.5007 24.6687 97.1714 25.206C96.8594 25.7433 96.4347 26.1767 95.8974 26.506C95.3601 26.8353 94.7534 27 94.0774 27H85.9394ZM86.0694 23.594H93.9474C94.0341 23.594 94.1034 23.568 94.1554 23.516C94.2247 23.4467 94.2594 23.3687 94.2594 23.282V15.638C94.2594 15.5513 94.2247 15.482 94.1554 15.43C94.1034 15.3607 94.0341 15.326 93.9474 15.326H86.0694C85.9827 15.326 85.9047 15.3607 85.8354 15.43C85.7834 15.482 85.7574 15.5513 85.7574 15.638V23.282C85.7574 23.3687 85.7834 23.4467 85.8354 23.516C85.9047 23.568 85.9827 23.594 86.0694 23.594ZM103.213 27C102.537 27 101.931 26.8353 101.393 26.506C100.856 26.1767 100.423 25.7433 100.093 25.206C99.7813 24.6687 99.6253 24.0707 99.6253 23.412V15.508C99.6253 14.8493 99.7813 14.2513 100.093 13.714C100.423 13.1767 100.856 12.7433 101.393 12.414C101.931 12.0847 102.537 11.92 103.213 11.92H111.559V6.98H114.965V27H103.213ZM103.369 23.594H111.247C111.334 23.594 111.403 23.568 111.455 23.516C111.525 23.4467 111.559 23.3687 111.559 23.282V15.638C111.559 15.5513 111.525 15.482 111.455 15.43C111.403 15.3607 111.334 15.326 111.247 15.326H103.369C103.283 15.326 103.205 15.3607 103.135 15.43C103.083 15.482 103.057 15.5513 103.057 15.638V23.282C103.057 23.3687 103.083 23.4467 103.135 23.516C103.205 23.568 103.283 23.594 103.369 23.594ZM121.309 27C120.65 27 120.044 26.8353 119.489 26.506C118.952 26.1767 118.518 25.7433 118.189 25.206C117.877 24.6687 117.721 24.0707 117.721 23.412V17.744H129.629V15.638C129.629 15.5513 129.594 15.482 129.525 15.43C129.473 15.3607 129.404 15.326 129.317 15.326H117.721V11.92H129.447C130.106 11.92 130.704 12.0847 131.241 12.414C131.796 12.7433 132.229 13.1767 132.541 13.714C132.87 14.2513 133.035 14.8493 133.035 15.508V27H121.309ZM121.439 23.594H129.629V20.812H121.127V23.282C121.127 23.3687 121.153 23.4467 121.205 23.516C121.274 23.568 121.352 23.594 121.439 23.594ZM135.547 27V11.92H147.273C147.931 11.92 148.529 12.0847 149.067 12.414C149.621 12.7433 150.055 13.1767 150.367 13.714C150.696 14.2513 150.861 14.8493 150.861 15.508V27H147.455V15.638C147.455 15.5513 147.42 15.482 147.351 15.43C147.299 15.3607 147.229 15.326 147.143 15.326H139.265C139.178 15.326 139.1 15.3607 139.031 15.43C138.979 15.482 138.953 15.5513 138.953 15.638V27H135.547Z" fill="black"/>
</svg>
